<svg width="28" height="28" viewBox="0 0 28 28" fill="none" xmlns="http://www.w3.org/2000/svg">
<g id="fluent:clipboard-bullet-list-rtl-20-filled">
<path id="Vector" d="M11.8996 2.80078H16.0996C16.5341 2.80055 16.9579 2.93508 17.3127 3.18582C17.6675 3.43656 17.9358 3.79117 18.0806 4.20078H20.2996C20.8566 4.20078 21.3907 4.42203 21.7845 4.81586C22.1784 5.20968 22.3996 5.74383 22.3996 6.30078V23.1008C22.3996 23.6577 22.1784 24.1919 21.7845 24.5857C21.3907 24.9795 20.8566 25.2008 20.2996 25.2008H7.69961C7.14265 25.2008 6.60851 24.9795 6.21468 24.5857C5.82086 24.1919 5.59961 23.6577 5.59961 23.1008V6.30078C5.59961 5.74383 5.82086 5.20968 6.21468 4.81586C6.60851 4.42203 7.14265 4.20078 7.69961 4.20078H9.91861C10.0634 3.79117 10.3317 3.43656 10.6865 3.18582C11.0413 2.93508 11.4652 2.80055 11.8996 2.80078ZM11.1996 4.90078C11.1996 5.08643 11.2734 5.26448 11.4046 5.39576C11.5359 5.52703 11.714 5.60078 11.8996 5.60078H16.0996C16.2853 5.60078 16.4633 5.52703 16.5946 5.39576C16.7259 5.26448 16.7996 5.08643 16.7996 4.90078C16.7996 4.71513 16.7259 4.53708 16.5946 4.40581C16.4633 4.27453 16.2853 4.20078 16.0996 4.20078H11.8996C11.714 4.20078 11.5359 4.27453 11.4046 4.40581C11.2734 4.53708 11.1996 4.71513 11.1996 4.90078ZM17.8496 12.9508C18.1281 12.9508 18.3952 12.8402 18.5921 12.6432C18.789 12.4463 18.8996 12.1793 18.8996 11.9008C18.8996 11.6223 18.789 11.3552 18.5921 11.1583C18.3952 10.9614 18.1281 10.8508 17.8496 10.8508C17.5711 10.8508 17.3041 10.9614 17.1071 11.1583C16.9102 11.3552 16.7996 11.6223 16.7996 11.9008C16.7996 12.1793 16.9102 12.4463 17.1071 12.6432C17.3041 12.8402 17.5711 12.9508 17.8496 12.9508ZM17.8496 17.1508C18.1281 17.1508 18.3952 17.0402 18.5921 16.8432C18.789 16.6463 18.8996 16.3793 18.8996 16.1008C18.8996 15.8223 18.789 15.5552 18.5921 15.3583C18.3952 15.1614 18.1281 15.0508 17.8496 15.0508C17.5711 15.0508 17.3041 15.1614 17.1071 15.3583C16.9102 15.5552 16.7996 15.8223 16.7996 16.1008C16.7996 16.3793 16.9102 16.6463 17.1071 16.8432C17.3041 17.0402 17.5711 17.1508 17.8496 17.1508ZM16.7996 20.3008C16.7996 20.5793 16.9102 20.8463 17.1071 21.0432C17.3041 21.2402 17.5711 21.3508 17.8496 21.3508C18.1281 21.3508 18.3952 21.2402 18.5921 21.0432C18.789 20.8463 18.8996 20.5793 18.8996 20.3008C18.8996 20.0223 18.789 19.7552 18.5921 19.5583C18.3952 19.3614 18.1281 19.2508 17.8496 19.2508C17.5711 19.2508 17.3041 19.3614 17.1071 19.5583C16.9102 19.7552 16.7996 20.0223 16.7996 20.3008ZM15.3996 11.9008C15.3996 11.7151 15.3259 11.5371 15.1946 11.4058C15.0633 11.2745 14.8853 11.2008 14.6996 11.2008H9.79961C9.61396 11.2008 9.43591 11.2745 9.30464 11.4058C9.17336 11.5371 9.09961 11.7151 9.09961 11.9008C9.09961 12.0864 9.17336 12.2645 9.30464 12.3958C9.43591 12.527 9.61396 12.6008 9.79961 12.6008H14.6996C14.8853 12.6008 15.0633 12.527 15.1946 12.3958C15.3259 12.2645 15.3996 12.0864 15.3996 11.9008ZM15.3996 16.1008C15.3996 15.9151 15.3259 15.7371 15.1946 15.6058C15.0633 15.4745 14.8853 15.4008 14.6996 15.4008H9.79961C9.61396 15.4008 9.43591 15.4745 9.30464 15.6058C9.17336 15.7371 9.09961 15.9151 9.09961 16.1008C9.09961 16.2864 9.17336 16.4645 9.30464 16.5958C9.43591 16.727 9.61396 16.8008 9.79961 16.8008H14.6996C14.8853 16.8008 15.0633 16.727 15.1946 16.5958C15.3259 16.4645 15.3996 16.2864 15.3996 16.1008ZM15.3996 20.3008C15.3996 20.1151 15.3259 19.9371 15.1946 19.8058C15.0633 19.6745 14.8853 19.6008 14.6996 19.6008H9.79961C9.61396 19.6008 9.43591 19.6745 9.30464 19.8058C9.17336 19.9371 9.09961 20.1151 9.09961 20.3008C9.09961 20.4864 9.17336 20.6645 9.30464 20.7958C9.43591 20.927 9.61396 21.0008 9.79961 21.0008H14.6996C14.8853 21.0008 15.0633 20.927 15.1946 20.7958C15.3259 20.6645 15.3996 20.4864 15.3996 20.3008Z" fill="#FEFEFE"/>
</g>
</svg>
