<svg width="28" height="28" viewBox="0 0 28 28" fill="none" xmlns="http://www.w3.org/2000/svg">
<g id="fluent:clipboard-bullet-list-ltr-16-filled">
<path id="Vector" d="M8.89875 3.5C9.07977 2.98799 9.41514 2.54473 9.85864 2.2313C10.3021 1.91787 10.8319 1.74972 11.375 1.75H16.625C17.1681 1.74972 17.6979 1.91787 18.1414 2.2313C18.5849 2.54473 18.9202 2.98799 19.1012 3.5H20.125C20.8212 3.5 21.4889 3.77656 21.9812 4.26885C22.4734 4.76113 22.75 5.42881 22.75 6.125V23.625C22.75 24.3212 22.4734 24.9889 21.9812 25.4812C21.4889 25.9734 20.8212 26.25 20.125 26.25H7.875C7.17881 26.25 6.51113 25.9734 6.01884 25.4812C5.52656 24.9889 5.25 24.3212 5.25 23.625V6.125C5.25 5.42881 5.52656 4.76113 6.01884 4.26885C6.51113 3.77656 7.17881 3.5 7.875 3.5H8.89875ZM11.375 3.5C11.1429 3.5 10.9204 3.59219 10.7563 3.75628C10.5922 3.92038 10.5 4.14294 10.5 4.375C10.5 4.60706 10.5922 4.82962 10.7563 4.99372C10.9204 5.15781 11.1429 5.25 11.375 5.25H16.625C16.8571 5.25 17.0796 5.15781 17.2437 4.99372C17.4078 4.82962 17.5 4.60706 17.5 4.375C17.5 4.14294 17.4078 3.92038 17.2437 3.75628C17.0796 3.59219 16.8571 3.5 16.625 3.5H11.375ZM12.25 13.125C12.25 13.3571 12.3422 13.5796 12.5063 13.7437C12.6704 13.9078 12.8929 14 13.125 14H18.375C18.6071 14 18.8296 13.9078 18.9937 13.7437C19.1578 13.5796 19.25 13.3571 19.25 13.125C19.25 12.8929 19.1578 12.6704 18.9937 12.5063C18.8296 12.3422 18.6071 12.25 18.375 12.25H13.125C12.8929 12.25 12.6704 12.3422 12.5063 12.5063C12.3422 12.6704 12.25 12.8929 12.25 13.125ZM12.25 18.375C12.25 18.6071 12.3422 18.8296 12.5063 18.9937C12.6704 19.1578 12.8929 19.25 13.125 19.25H18.375C18.6071 19.25 18.8296 19.1578 18.9937 18.9937C19.1578 18.8296 19.25 18.6071 19.25 18.375C19.25 18.1429 19.1578 17.9204 18.9937 17.7563C18.8296 17.5922 18.6071 17.5 18.375 17.5H13.125C12.8929 17.5 12.6704 17.5922 12.5063 17.7563C12.3422 17.9204 12.25 18.1429 12.25 18.375ZM9.625 14C9.85706 14 10.0796 13.9078 10.2437 13.7437C10.4078 13.5796 10.5 13.3571 10.5 13.125C10.5 12.8929 10.4078 12.6704 10.2437 12.5063C10.0796 12.3422 9.85706 12.25 9.625 12.25C9.39294 12.25 9.17038 12.3422 9.00628 12.5063C8.84219 12.6704 8.75 12.8929 8.75 13.125C8.75 13.3571 8.84219 13.5796 9.00628 13.7437C9.17038 13.9078 9.39294 14 9.625 14ZM9.625 19.25C9.85706 19.25 10.0796 19.1578 10.2437 18.9937C10.4078 18.8296 10.5 18.6071 10.5 18.375C10.5 18.1429 10.4078 17.9204 10.2437 17.7563C10.0796 17.5922 9.85706 17.5 9.625 17.5C9.39294 17.5 9.17038 17.5922 9.00628 17.7563C8.84219 17.9204 8.75 18.1429 8.75 18.375C8.75 18.6071 8.84219 18.8296 9.00628 18.9937C9.17038 19.1578 9.39294 19.25 9.625 19.25Z" fill="#FEFEFE"/>
</g>
</svg>
