<svg width="28" height="28" viewBox="0 0 28 28" fill="none" xmlns="http://www.w3.org/2000/svg">
<g id="fluent:clipboard-task-list-rtl-24-filled">
<path id="Vector" d="M16.041 2.33398H11.9577C11.312 2.334 10.689 2.57199 10.2077 3.00245C9.72648 3.43291 9.42076 4.02564 9.34902 4.66732H7.29102C6.59482 4.66732 5.92714 4.94388 5.43486 5.43616C4.94258 5.92845 4.66602 6.59612 4.66602 7.29232V23.0423C4.66602 23.7385 4.94258 24.4062 5.43486 24.8985C5.92714 25.3908 6.59482 25.6673 7.29102 25.6673H20.7077C21.0524 25.6673 21.3937 25.5994 21.7122 25.4675C22.0307 25.3356 22.3201 25.1422 22.5638 24.8985C22.8076 24.6547 23.0009 24.3653 23.1329 24.0469C23.2648 23.7284 23.3327 23.387 23.3327 23.0423V7.29232C23.3327 6.9476 23.2648 6.60625 23.1329 6.28777C23.0009 5.96929 22.8076 5.67992 22.5638 5.43616C22.3201 5.19241 22.0307 4.99905 21.7122 4.86713C21.3937 4.73522 21.0524 4.66732 20.7077 4.66732H18.6497C18.5779 4.02564 18.2722 3.43291 17.791 3.00245C17.3097 2.57199 16.6867 2.334 16.041 2.33398ZM11.9577 4.08398H16.041C16.2731 4.08398 16.4956 4.17617 16.6597 4.34027C16.8238 4.50436 16.916 4.72692 16.916 4.95898C16.916 5.19105 16.8238 5.41361 16.6597 5.5777C16.4956 5.7418 16.2731 5.83398 16.041 5.83398H11.9577C11.7256 5.83398 11.5031 5.7418 11.339 5.5777C11.1749 5.41361 11.0827 5.19105 11.0827 4.95898C11.0827 4.72692 11.1749 4.50436 11.339 4.34027C11.5031 4.17617 11.7256 4.08398 11.9577 4.08398ZM20.1593 10.174C20.3232 10.338 20.4152 10.5604 20.4152 10.7923C20.4152 11.0242 20.3232 11.2466 20.1593 11.4107L17.826 13.744C17.662 13.9078 17.4396 13.9999 17.2077 13.9999C16.9758 13.9999 16.7534 13.9078 16.5893 13.744L15.4227 12.5773C15.3367 12.4972 15.2678 12.4006 15.2199 12.2933C15.1721 12.1859 15.1464 12.0701 15.1443 11.9526C15.1423 11.8351 15.1639 11.7184 15.2079 11.6095C15.2519 11.5005 15.3174 11.4015 15.4005 11.3184C15.4836 11.2354 15.5825 11.1698 15.6915 11.1258C15.8004 11.0818 15.9171 11.0602 16.0346 11.0623C16.1521 11.0644 16.268 11.0901 16.3753 11.1379C16.4826 11.1857 16.5792 11.2547 16.6593 11.3407L17.2077 11.889L18.9227 10.174C19.0867 10.0101 19.3091 9.91809 19.541 9.91809C19.7729 9.91809 19.9953 10.0101 20.1593 10.174ZM20.1593 17.8273L17.826 20.1607C17.662 20.3245 17.4396 20.4165 17.2077 20.4165C16.9758 20.4165 16.7534 20.3245 16.5893 20.1607L15.4227 18.994C15.3367 18.9139 15.2678 18.8173 15.2199 18.7099C15.1721 18.6026 15.1464 18.4867 15.1443 18.3693C15.1423 18.2518 15.1639 18.1351 15.2079 18.0261C15.2519 17.9172 15.3174 17.8182 15.4005 17.7351C15.4836 17.652 15.5825 17.5865 15.6915 17.5425C15.8004 17.4985 15.9171 17.4769 16.0346 17.479C16.1521 17.481 16.268 17.5068 16.3753 17.5546C16.4826 17.6024 16.5792 17.6714 16.6593 17.7573L17.2077 18.3057L18.9227 16.5907C19.0028 16.5047 19.0994 16.4357 19.2067 16.3879C19.3141 16.3401 19.4299 16.3144 19.5474 16.3123C19.6649 16.3102 19.7816 16.3318 19.8905 16.3758C19.9995 16.4199 20.0985 16.4854 20.1816 16.5684C20.2646 16.6515 20.3302 16.7505 20.3742 16.8595C20.4182 16.9684 20.4398 17.0851 20.4377 17.2026C20.4356 17.3201 20.4099 17.4359 20.3621 17.5433C20.3143 17.6506 20.2453 17.7472 20.1593 17.8273ZM8.16602 11.959C8.16602 11.7269 8.2582 11.5044 8.4223 11.3403C8.58639 11.1762 8.80895 11.084 9.04102 11.084H13.1243C13.3564 11.084 13.579 11.1762 13.7431 11.3403C13.9072 11.5044 13.9993 11.7269 13.9993 11.959C13.9993 12.191 13.9072 12.4136 13.7431 12.5777C13.579 12.7418 13.3564 12.834 13.1243 12.834H9.04102C8.80895 12.834 8.58639 12.7418 8.4223 12.5777C8.2582 12.4136 8.16602 12.191 8.16602 11.959ZM9.04102 17.5007H13.1243C13.3564 17.5007 13.579 17.5928 13.7431 17.7569C13.9072 17.921 13.9993 18.1436 13.9993 18.3757C13.9993 18.6077 13.9072 18.8303 13.7431 18.9944C13.579 19.1585 13.3564 19.2507 13.1243 19.2507H9.04102C8.80895 19.2507 8.58639 19.1585 8.4223 18.9944C8.2582 18.8303 8.16602 18.6077 8.16602 18.3757C8.16602 18.1436 8.2582 17.921 8.4223 17.7569C8.58639 17.5928 8.80895 17.5007 9.04102 17.5007Z" fill="#FEFEFE"/>
</g>
</svg>
