<svg width="21" height="20" viewBox="0 0 21 20" fill="none" xmlns="http://www.w3.org/2000/svg">
<g id="logos:google-icon" clip-path="url(#clip0_1303_94421)">
<path id="Vector" d="M20.2618 10.1878C20.2618 9.36841 20.1954 8.77047 20.0515 8.15039H10.6948V11.8487H16.187C16.0763 12.7678 15.4783 14.1519 14.1496 15.082L14.1309 15.2058L17.0893 17.4976L17.2943 17.5181C19.1767 15.7796 20.2618 13.2218 20.2618 10.1878Z" fill="#4285F4"/>
<path id="Vector_2" d="M10.6947 19.9322C13.3854 19.9322 15.6442 19.0463 17.2941 17.5183L14.1494 15.0822C13.3079 15.669 12.1784 16.0787 10.6947 16.0787C8.05932 16.0787 5.8226 14.3403 5.02527 11.9375L4.9084 11.9474L1.83222 14.3281L1.79199 14.4399C3.43077 17.6954 6.79695 19.9322 10.6947 19.9322Z" fill="#34A853"/>
<path id="Vector_3" d="M5.02526 11.9363C4.81488 11.3163 4.69313 10.6518 4.69313 9.96534C4.69313 9.27878 4.81488 8.61443 5.01419 7.99435L5.00862 7.86229L1.89389 5.44336L1.79198 5.49183C1.11656 6.84275 0.729004 8.35977 0.729004 9.96534C0.729004 11.5709 1.11656 13.0879 1.79198 14.4388L5.02526 11.9363Z" fill="#FBBC05"/>
<path id="Vector_4" d="M10.6947 3.85336C12.566 3.85336 13.8283 4.66168 14.548 5.33718L17.3605 2.59107C15.6332 0.985496 13.3854 0 10.6947 0C6.79695 0 3.43077 2.23672 1.79199 5.49214L5.01421 7.99466C5.8226 5.59183 8.05932 3.85336 10.6947 3.85336Z" fill="#EB4335"/>
</g>
<defs>
<clipPath id="clip0_1303_94421">
<rect width="19.55" height="20" fill="white" transform="translate(0.725098)"/>
</clipPath>
</defs>
</svg>
