<svg width="28" height="28" viewBox="0 0 28 28" fill="none" xmlns="http://www.w3.org/2000/svg">
<g id="mdi:receipt-text-pending">
<path id="Vector" d="M17.5 19.4723V15.1673H19.25V18.4573L22.0967 20.1023L21.2217 21.619L17.5 19.4723ZM22.75 4.08398L21 2.33398L19.25 4.08398L17.5 2.33398L15.75 4.08398L14 2.33398L12.25 4.08398L10.5 2.33398L8.75 4.08398L7 2.33398L5.25 4.08398L3.5 2.33398V25.6673L5.25 23.9173L7 25.6673L8.75 23.9173L10.5 25.6673L12.3433 23.824C12.5067 24.0457 12.6933 24.244 12.8917 24.4423C14.4222 25.95 16.4852 26.794 18.6337 26.7913C20.7821 26.7887 22.843 25.9396 24.3699 24.4281C25.8967 22.9166 26.7665 20.8644 26.7909 18.7161C26.8152 16.5678 25.9922 14.4964 24.5 12.9507V2.33398L22.75 4.08398ZM12.95 12.834C12.25 13.499 11.7017 14.2923 11.2817 15.1673H7V12.834H12.95ZM10.5817 17.5007C10.5 17.8857 10.5 18.2707 10.5 18.6673C10.5 19.064 10.5 19.449 10.5817 19.834H7V17.5007H10.5817ZM21 10.5007H7V8.16732H21V10.5007ZM24.325 18.6673C24.325 19.414 24.185 20.149 23.9167 20.8373C23.6133 21.514 23.1933 22.1673 22.6683 22.669C22.1667 23.194 21.5133 23.614 20.8367 23.9173C20.1483 24.1856 19.4133 24.3257 18.6667 24.3257C15.54 24.3257 13.0083 21.794 13.0083 18.6673C13.0083 17.1623 13.6033 15.7507 14.665 14.6657C15.75 13.604 17.1617 13.009 18.6667 13.009C21.7817 13.009 24.325 15.5407 24.325 18.6673Z" fill="#FEFEFE"/>
</g>
</svg>
